<?xml version="1.0" encoding="UTF-8" standalone="no"?>
<!-- Created with Inkscape (http://www.inkscape.org/) -->

<svg
   xmlns:dc="http://purl.org/dc/elements/1.1/"
   xmlns:cc="http://creativecommons.org/ns#"
   xmlns:rdf="http://www.w3.org/1999/02/22-rdf-syntax-ns#"
   xmlns:svg="http://www.w3.org/2000/svg"
   xmlns="http://www.w3.org/2000/svg"
   xmlns:sodipodi="http://sodipodi.sourceforge.net/DTD/sodipodi-0.dtd"
   xmlns:inkscape="http://www.inkscape.org/namespaces/inkscape"
   width="217mm"
   height="181.5mm"
   viewBox="0 0 217 181.5"
   version="1.1"
   id="svg5308"
   inkscape:version="0.92.1 r15371"
   sodipodi:docname="icon_gears.svg">
  <defs
     id="defs5302" />
  <sodipodi:namedview
     id="base"
     pagecolor="#ffffff"
     bordercolor="#666666"
     borderopacity="1.0"
     inkscape:pageopacity="0.0"
     inkscape:pageshadow="2"
     inkscape:zoom="0.35"
     inkscape:cx="-588.49268"
     inkscape:cy="725.84926"
     inkscape:document-units="mm"
     inkscape:current-layer="layer1"
     showgrid="false"
     fit-margin-top="0"
     fit-margin-left="0"
     fit-margin-right="0"
     fit-margin-bottom="0"
     inkscape:window-width="1366"
     inkscape:window-height="719"
     inkscape:window-x="-8"
     inkscape:window-y="-8"
     inkscape:window-maximized="1" />
  <metadata
     id="metadata5305">
    <rdf:RDF>
      <cc:Work
         rdf:about="">
        <dc:format>image/svg+xml</dc:format>
        <dc:type
           rdf:resource="http://purl.org/dc/dcmitype/StillImage" />
        <dc:title></dc:title>
      </cc:Work>
    </rdf:RDF>
  </metadata>
  <g
     inkscape:label="Layer 1"
     inkscape:groupmode="layer"
     id="layer1"
     transform="translate(-138.69643,-159.38095)">
    <g
       id="g4963"
       transform="matrix(0.93204916,0,0,0.93204916,-482.82956,583.64578)">
      <path
         inkscape:connector-curvature="0"
         id="path4955"
         d="m 744.8055,-429.70824 -6.84076,12.58262 a 24.166609,24.166607 15 0 0 -11.94513,1.55209 l -9.90908,-10.34147 4.00245,13.75598 a 24.166609,24.166607 15 0 0 -7.30047,9.50788 l -14.31848,-0.30562 12.54735,6.89132 a 24.166609,24.166607 15 0 0 1.58679,11.95839 l -10.36849,9.85012 13.72334,-4.0569 a 24.166609,24.166607 15 0 0 9.55214,7.34774 l -0.30576,14.31677 6.89205,-12.54886 a 24.166609,24.166607 15 0 0 11.95007,-1.58993 l 9.85701,10.37581 -4.06014,-13.73456 a 24.166609,24.166607 15 0 0 7.36425,-9.60112 l 14.32003,0.36721 -12.58387,-6.84137 a 24.166609,24.166607 15 0 0 -1.55511,-11.93705 l 10.34869,-9.91573 -13.76683,4.00552 a 24.166609,24.166607 15 0 0 -9.55725,-7.31679 z m -5.21459,19.44085 a 17.703733,17.703732 15 0 1 12.51831,21.68277 17.703733,17.703732 15 0 1 -21.68248,12.5184 17.703733,17.703732 15 0 1 -12.51839,-21.6825 17.703733,17.703732 15 0 1 21.68256,-12.51867 z"
         style="opacity:1;vector-effect:none;fill:#333333;fill-opacity:1;stroke:#333333;stroke-width:9.35956287;stroke-linecap:round;stroke-linejoin:miter;stroke-miterlimit:4;stroke-dasharray:none;stroke-dashoffset:0;stroke-opacity:1;paint-order:normal" />
      <path
         style="opacity:1;vector-effect:none;fill:#4d4d4d;fill-opacity:1;stroke:#4d4d4d;stroke-width:14.02222538;stroke-linecap:round;stroke-linejoin:miter;stroke-miterlimit:4;stroke-dasharray:none;stroke-dashoffset:0;stroke-opacity:1;paint-order:normal"
         d="m 840.49639,-390.88173 -14.7783,15.55607 a 36.205713,36.205713 0 0 0 -17.88789,-2.38573 l -10.32974,-18.80767 0.45802,21.45853 a 36.205713,36.205713 0 0 0 -14.25129,10.9283 l -20.60213,-5.99435 15.48537,14.83787 a 36.205713,36.205713 0 0 0 -2.34061,17.92055 l -18.82392,10.23388 21.43244,-0.54954 a 36.205713,36.205713 0 0 0 10.97405,14.33697 l -5.9939,20.59954 14.83952,-15.48729 a 36.205713,36.205713 0 0 0 17.90975,2.33289 l 10.24093,18.83714 -0.54985,-21.4499 a 36.205713,36.205713 0 0 0 14.37988,-11.03846 l 20.5804,6.08406 -15.55753,-14.77975 a 36.205713,36.205713 0 0 0 2.37807,-17.87737 l 18.82081,-10.33651 -21.47552,0.45831 a 36.205713,36.205713 0 0 0 -10.99336,-14.29414 z m -15.08451,26.11125 a 26.523221,26.523219 30 0 1 9.70789,36.23164 26.523221,26.523219 30 0 1 -36.23121,9.70817 26.523221,26.523219 30 0 1 -9.7082,-36.23129 26.523221,26.523219 30 0 1 36.23152,-9.70852 z"
         id="path4957"
         inkscape:connector-curvature="0" />
    </g>
  </g>
</svg>
