<?xml version="1.0" encoding="UTF-8" standalone="no"?>
<!-- Created with Inkscape (http://www.inkscape.org/) -->

<svg
   xmlns:dc="http://purl.org/dc/elements/1.1/"
   xmlns:cc="http://creativecommons.org/ns#"
   xmlns:rdf="http://www.w3.org/1999/02/22-rdf-syntax-ns#"
   xmlns:svg="http://www.w3.org/2000/svg"
   xmlns="http://www.w3.org/2000/svg"
   xmlns:sodipodi="http://sodipodi.sourceforge.net/DTD/sodipodi-0.dtd"
   xmlns:inkscape="http://www.inkscape.org/namespaces/inkscape"
   width="217mm"
   height="181.5mm"
   viewBox="0 0 217 181.5"
   version="1.1"
   id="svg6773"
   inkscape:version="0.92.1 r15371"
   sodipodi:docname="icon_123.svg">
  <defs
     id="defs6767">
    <pattern
       y="0"
       x="0"
       height="6"
       width="6"
       patternUnits="userSpaceOnUse"
       id="EMFhbasepattern" />
    <pattern
       y="0"
       x="0"
       height="6"
       width="6"
       patternUnits="userSpaceOnUse"
       id="EMFhbasepattern-2" />
  </defs>
  <sodipodi:namedview
     id="base"
     pagecolor="#ffffff"
     bordercolor="#666666"
     borderopacity="1.0"
     inkscape:pageopacity="0.0"
     inkscape:pageshadow="2"
     inkscape:zoom="0.35"
     inkscape:cx="64.520178"
     inkscape:cy="623.26745"
     inkscape:document-units="mm"
     inkscape:current-layer="layer1"
     showgrid="false"
     fit-margin-top="0"
     fit-margin-left="0"
     fit-margin-right="0"
     fit-margin-bottom="0"
     inkscape:window-width="1366"
     inkscape:window-height="719"
     inkscape:window-x="-8"
     inkscape:window-y="-8"
     inkscape:window-maximized="1" />
  <metadata
     id="metadata6770">
    <rdf:RDF>
      <cc:Work
         rdf:about="">
        <dc:format>image/svg+xml</dc:format>
        <dc:type
           rdf:resource="http://purl.org/dc/dcmitype/StillImage" />
        <dc:title></dc:title>
      </cc:Work>
    </rdf:RDF>
  </metadata>
  <g
     inkscape:label="Layer 1"
     inkscape:groupmode="layer"
     id="layer1"
     transform="translate(115.58117,-132.23952)">
    <g
       id="g8119"
       transform="matrix(0.46184844,0,0,0.46184844,1002.0876,710.93571)">
      <ellipse
         ry="60.024273"
         rx="60.07362"
         style="opacity:1;vector-effect:none;fill:#ffffff;fill-opacity:1;fill-rule:nonzero;stroke:#4d4d4d;stroke-width:19.85276031;stroke-linecap:round;stroke-linejoin:miter;stroke-miterlimit:4;stroke-dasharray:none;stroke-dashoffset:0;stroke-opacity:1;paint-order:normal"
         id="ellipse8075"
         cx="-2164.2388"
         cy="-1136.1245" />
      <path
         id="path8077"
         style="font-style:normal;font-variant:normal;font-weight:normal;font-stretch:normal;font-size:400px;line-height:1.25;font-family:'Microsoft New Tai Lue';-inkscape-font-specification:'Microsoft New Tai Lue';letter-spacing:0px;word-spacing:0px;fill:#333333;fill-opacity:1;stroke:#333333;stroke-width:4.96319008;stroke-miterlimit:4;stroke-dasharray:none"
         d="m -2153.9815,-1117.7806 h -20.3127 v -3.6038 h 8.1152 v -27.8785 l -8.3155,2.4775 v -3.9041 l 12.423,-3.7788 v 33.0839 h 8.09 z"
         inkscape:connector-curvature="0" />
      <ellipse
         ry="68.599167"
         rx="68.655563"
         cy="-1078.723"
         cx="-2253.4844"
         id="ellipse8081"
         style="opacity:1;vector-effect:none;fill:#ffffff;fill-opacity:1;fill-rule:nonzero;stroke:#4d4d4d;stroke-width:22.68886948;stroke-linecap:round;stroke-linejoin:miter;stroke-miterlimit:4;stroke-dasharray:none;stroke-dashoffset:0;stroke-opacity:1;paint-order:normal" />
      <g
         aria-label="2"
         transform="matrix(0.14655641,0,0,0.14643603,-4184.5506,-1056.9509)"
         style="font-style:normal;font-weight:normal;font-size:400px;line-height:1.25;font-family:sans-serif;letter-spacing:0px;word-spacing:0px;opacity:1;vector-effect:none;fill:#333333;fill-opacity:1;stroke:#333333;stroke-width:38.71921158;stroke-linecap:butt;stroke-linejoin:miter;stroke-miterlimit:4;stroke-dasharray:none;stroke-dashoffset:0;stroke-opacity:1"
         id="g8085">
        <path
           inkscape:connector-curvature="0"
           d="m 13259.375,-6.2983421 h -168.75 V -34.813967 l 81.641,-81.835933 q 31.25,-31.25 44.531,-51.95313 13.476,-20.89844 13.476,-44.53125 0,-24.21875 -13.867,-37.5 -13.867,-13.28125 -39.453,-13.28125 -37.5,0 -71.875,32.03125 v -33.59375 q 32.813,-25.58594 76.367,-25.58594 37.5,0 58.985,20.3125 21.484,20.3125 21.484,54.49219 0,26.95313 -14.844,52.73438 -14.843,25.58593 -53.32,63.67187 l -64.648,63.867188 v 0.78125 h 130.273 z"
           style="font-style:normal;font-variant:normal;font-weight:normal;font-stretch:normal;font-size:400px;font-family:'Microsoft New Tai Lue';-inkscape-font-specification:'Microsoft New Tai Lue';vector-effect:none;fill:#333333;fill-opacity:1;stroke:#333333;stroke-width:38.71921158;stroke-linecap:butt;stroke-linejoin:miter;stroke-miterlimit:4;stroke-dasharray:none;stroke-dashoffset:0;stroke-opacity:1"
           id="path8083" />
      </g>
      <ellipse
         ry="85.748962"
         rx="85.819458"
         style="opacity:1;vector-effect:none;fill:#ffffff;fill-opacity:1;fill-rule:nonzero;stroke:#4d4d4d;stroke-width:28.36108589;stroke-linecap:round;stroke-linejoin:miter;stroke-miterlimit:4;stroke-dasharray:none;stroke-dashoffset:0;stroke-opacity:1;paint-order:normal"
         id="ellipse8089"
         cx="-2136.645"
         cy="-1006.8687" />
      <g
         aria-label="3"
         transform="matrix(0.18319551,0,0,0.18304503,-4595.5243,-944.61762)"
         style="font-style:normal;font-weight:normal;font-size:400px;line-height:1.25;font-family:sans-serif;letter-spacing:0px;word-spacing:0px;opacity:1;vector-effect:none;fill:#333333;fill-opacity:1;stroke:#333333;stroke-width:38.71921158;stroke-linecap:butt;stroke-linejoin:miter;stroke-miterlimit:4;stroke-dasharray:none;stroke-dashoffset:0;stroke-opacity:1"
         id="g8093">
        <path
           inkscape:connector-curvature="0"
           d="m 13341.211,-210.3999 v -34.57032 q 28.711,22.65625 64.844,22.65625 29.297,0 46.679,-14.64843 17.579,-14.64844 17.579,-39.45313 0,-54.88281 -77.93,-54.88281 h -23.242 v -27.14844 h 22.07 q 69.336,0 69.336,-51.5625 0,-47.65625 -52.93,-47.65625 -29.492,0 -55.664,20.11719 v -31.25 q 26.953,-16.01563 63.672,-16.01563 35.352,0 56.445,18.75 21.289,18.75 21.289,48.04688 0,55.27344 -56.25,71.09375 v 0.78125 q 30.274,2.92969 48.047,21.28906 17.969,18.16406 17.969,45.50781 0,37.69532 -27.148,60.9375 -26.954,23.04688 -71.289,23.04688 -39.844,0 -63.477,-15.03906 z"
           style="font-style:normal;font-variant:normal;font-weight:normal;font-stretch:normal;font-size:400px;font-family:'Microsoft New Tai Lue';-inkscape-font-specification:'Microsoft New Tai Lue';vector-effect:none;fill:#333333;fill-opacity:1;stroke:#333333;stroke-width:38.71921158;stroke-linecap:butt;stroke-linejoin:miter;stroke-miterlimit:4;stroke-dasharray:none;stroke-dashoffset:0;stroke-opacity:1"
           id="path8091" />
      </g>
    </g>
  </g>
</svg>
