<?xml version="1.0" encoding="UTF-8" standalone="no"?>
<!-- Created with Inkscape (http://www.inkscape.org/) -->

<svg
   xmlns:dc="http://purl.org/dc/elements/1.1/"
   xmlns:cc="http://creativecommons.org/ns#"
   xmlns:rdf="http://www.w3.org/1999/02/22-rdf-syntax-ns#"
   xmlns:svg="http://www.w3.org/2000/svg"
   xmlns="http://www.w3.org/2000/svg"
   xmlns:sodipodi="http://sodipodi.sourceforge.net/DTD/sodipodi-0.dtd"
   xmlns:inkscape="http://www.inkscape.org/namespaces/inkscape"
   width="217mm"
   height="181.5mm"
   viewBox="0 0 217 181.5"
   version="1.1"
   id="svg5308"
   inkscape:version="0.92.2 (5c3e80d, 2017-08-06)"
   sodipodi:docname="icon_gears.svg">
  <defs
     id="defs5302" />
  <sodipodi:namedview
     id="base"
     pagecolor="#ffffff"
     bordercolor="#666666"
     borderopacity="1.0"
     inkscape:pageopacity="0.0"
     inkscape:pageshadow="2"
     inkscape:zoom="0.35"
     inkscape:cx="-1052.7784"
     inkscape:cy="725.84926"
     inkscape:document-units="mm"
     inkscape:current-layer="layer1"
     showgrid="false"
     fit-margin-top="0"
     fit-margin-left="0"
     fit-margin-right="0"
     fit-margin-bottom="0"
     inkscape:window-width="2048"
     inkscape:window-height="1089"
     inkscape:window-x="-8"
     inkscape:window-y="-8"
     inkscape:window-maximized="1" />
  <metadata
     id="metadata5305">
    <rdf:RDF>
      <cc:Work
         rdf:about="">
        <dc:format>image/svg+xml</dc:format>
        <dc:type
           rdf:resource="http://purl.org/dc/dcmitype/StillImage" />
        <dc:title />
      </cc:Work>
    </rdf:RDF>
  </metadata>
  <g
     inkscape:label="Layer 1"
     inkscape:groupmode="layer"
     id="layer1"
     transform="translate(-138.69643,-159.38095)">
    <path
       style="opacity:1;vector-effect:none;fill:#333333;fill-opacity:1;stroke:#333333;stroke-width:8.72357273;stroke-linecap:round;stroke-linejoin:miter;stroke-miterlimit:4;stroke-dasharray:none;stroke-dashoffset:0;stroke-opacity:1;paint-order:normal"
       d="m 211.36578,183.13658 -6.37592,11.72762 a 22.524468,22.524466 15 0 0 -11.13345,1.44662 l -9.23575,-9.63876 3.73048,12.82125 a 22.524468,22.524466 15 0 0 -6.8044,8.86181 l -13.34553,-0.28485 11.69475,6.42305 a 22.524468,22.524466 15 0 0 1.47897,11.14581 l -9.66395,9.18079 12.79083,-3.78123 a 22.524468,22.524466 15 0 0 8.90307,6.84846 l -0.28499,13.34393 6.42373,-11.69615 a 22.524468,22.524466 15 0 0 11.13806,-1.4819 l 9.18721,9.67077 -3.78425,-12.80129 a 22.524468,22.524466 15 0 0 6.86385,-8.94871 l 13.34697,0.34226 -11.72879,-6.3765 a 22.524468,22.524466 15 0 0 -1.44944,-11.12592 l 9.64549,-9.24194 -12.83136,3.73334 a 22.524468,22.524466 15 0 0 -8.90783,-6.81961 z m -4.86025,18.11982 a 16.500749,16.500749 15 0 1 11.66768,20.20941 16.500749,16.500749 15 0 1 -20.20914,11.66777 16.500749,16.500749 15 0 1 -11.66776,-20.20916 16.500749,16.500749 15 0 1 20.20922,-11.66802 z"
       id="path4955"
       inkscape:connector-curvature="0" />
    <path
       inkscape:connector-curvature="0"
       id="path4957"
       d="m 300.55439,219.32479 -13.7741,14.49902 A 33.745504,33.745504 0 0 0 270.1079,231.6002 l -9.62783,-17.52968 0.4269,20.00041 a 33.745504,33.745504 0 0 0 -13.2829,10.18571 l -19.2022,-5.58703 14.43313,13.82963 a 33.745504,33.745504 0 0 0 -2.18157,16.70283 l -17.54482,9.53848 19.97609,-0.5122 a 33.745504,33.745504 0 0 0 10.22836,13.36276 l -5.58661,19.19979 13.83116,-14.43492 a 33.745504,33.745504 0 0 0 16.69277,2.17437 l 9.54505,17.55714 -0.51249,-19.99236 a 33.745504,33.745504 0 0 0 13.40275,-10.28839 l 19.18195,5.67064 -14.50038,-13.77545 a 33.745504,33.745504 0 0 0 2.21647,-16.66259 l 17.54192,-9.63413 -20.01624,0.42716 a 33.745504,33.745504 0 0 0 -10.24635,-13.32284 z m -14.0595,24.33697 a 24.720946,24.720944 30 0 1 9.04823,33.76967 24.720946,24.720944 30 0 1 -33.76927,9.04849 24.720946,24.720944 30 0 1 -9.04852,-33.76934 24.720946,24.720944 30 0 1 33.76956,-9.04882 z"
       style="opacity:1;vector-effect:none;fill:#4d4d4d;fill-opacity:1;stroke:#4d4d4d;stroke-width:13.06940365;stroke-linecap:round;stroke-linejoin:miter;stroke-miterlimit:4;stroke-dasharray:none;stroke-dashoffset:0;stroke-opacity:1;paint-order:normal" />
  </g>
</svg>
